G04 MADE WITH FRITZING*
G04 WWW.FRITZING.ORG*
G04 DOUBLE SIDED*
G04 HOLES PLATED*
G04 CONTOUR ON CENTER OF CONTOUR VECTOR*
%ASAXBY*%
%FSLAX23Y23*%
%MOIN*%
%OFA0B0*%
%SFA1.0B1.0*%
%ADD10C,0.070000*%
%ADD11C,0.100000*%
%ADD12C,0.078000*%
%ADD13C,0.065972*%
%ADD14R,0.069958X0.070000*%
%ADD15R,0.078000X0.078000*%
%ADD16R,0.001000X0.001000*%
%LNCOPPER1*%
G90*
G70*
G54D10*
X343Y3442D03*
X343Y3342D03*
X343Y3242D03*
X343Y3142D03*
X343Y3042D03*
X343Y2942D03*
X343Y2842D03*
X343Y2742D03*
X343Y2642D03*
X343Y2542D03*
X343Y2442D03*
X343Y2342D03*
X343Y2242D03*
X343Y2142D03*
X343Y2042D03*
X943Y3442D03*
X943Y3342D03*
X943Y3242D03*
X943Y3142D03*
X943Y3042D03*
X943Y2942D03*
X943Y2842D03*
X943Y2742D03*
X943Y2642D03*
X943Y2542D03*
X943Y2442D03*
X943Y2342D03*
X943Y2242D03*
X943Y2142D03*
X943Y2042D03*
X544Y3537D03*
X544Y3437D03*
X644Y3537D03*
X644Y3437D03*
X744Y3537D03*
X744Y3437D03*
G54D11*
X3843Y3252D03*
X3843Y2742D03*
X3843Y3252D03*
X3843Y2742D03*
G54D12*
X3343Y842D03*
X3343Y742D03*
X3343Y642D03*
X3343Y542D03*
X3343Y442D03*
X3343Y342D03*
X3343Y242D03*
X3343Y142D03*
G54D13*
X1943Y1142D03*
X1943Y1242D03*
X1943Y1342D03*
X1943Y1442D03*
X1943Y1542D03*
X1943Y1642D03*
G54D14*
X343Y3442D03*
G54D15*
X3343Y842D03*
G54D16*
X3794Y3302D02*
X3892Y3302D01*
X3793Y3301D02*
X3892Y3301D01*
X3793Y3300D02*
X3892Y3300D01*
X3793Y3299D02*
X3892Y3299D01*
X3793Y3298D02*
X3892Y3298D01*
X3793Y3297D02*
X3892Y3297D01*
X3793Y3296D02*
X3892Y3296D01*
X3793Y3295D02*
X3892Y3295D01*
X3793Y3294D02*
X3892Y3294D01*
X3793Y3293D02*
X3892Y3293D01*
X3793Y3292D02*
X3892Y3292D01*
X3793Y3291D02*
X3834Y3291D01*
X3852Y3291D02*
X3892Y3291D01*
X3793Y3290D02*
X3830Y3290D01*
X3856Y3290D02*
X3892Y3290D01*
X3793Y3289D02*
X3827Y3289D01*
X3859Y3289D02*
X3892Y3289D01*
X3793Y3288D02*
X3825Y3288D01*
X3861Y3288D02*
X3892Y3288D01*
X3793Y3287D02*
X3823Y3287D01*
X3863Y3287D02*
X3892Y3287D01*
X3793Y3286D02*
X3821Y3286D01*
X3864Y3286D02*
X3892Y3286D01*
X3793Y3285D02*
X3820Y3285D01*
X3866Y3285D02*
X3892Y3285D01*
X3793Y3284D02*
X3818Y3284D01*
X3867Y3284D02*
X3892Y3284D01*
X3793Y3283D02*
X3817Y3283D01*
X3869Y3283D02*
X3892Y3283D01*
X3793Y3282D02*
X3816Y3282D01*
X3870Y3282D02*
X3892Y3282D01*
X3793Y3281D02*
X3815Y3281D01*
X3871Y3281D02*
X3892Y3281D01*
X3793Y3280D02*
X3814Y3280D01*
X3872Y3280D02*
X3892Y3280D01*
X3793Y3279D02*
X3813Y3279D01*
X3873Y3279D02*
X3892Y3279D01*
X3793Y3278D02*
X3812Y3278D01*
X3874Y3278D02*
X3892Y3278D01*
X3793Y3277D02*
X3811Y3277D01*
X3875Y3277D02*
X3892Y3277D01*
X3793Y3276D02*
X3810Y3276D01*
X3875Y3276D02*
X3892Y3276D01*
X3793Y3275D02*
X3810Y3275D01*
X3876Y3275D02*
X3892Y3275D01*
X3793Y3274D02*
X3809Y3274D01*
X3877Y3274D02*
X3892Y3274D01*
X3793Y3273D02*
X3808Y3273D01*
X3877Y3273D02*
X3892Y3273D01*
X3793Y3272D02*
X3808Y3272D01*
X3878Y3272D02*
X3892Y3272D01*
X3793Y3271D02*
X3807Y3271D01*
X3879Y3271D02*
X3892Y3271D01*
X3793Y3270D02*
X3807Y3270D01*
X3879Y3270D02*
X3892Y3270D01*
X3793Y3269D02*
X3806Y3269D01*
X3880Y3269D02*
X3892Y3269D01*
X3793Y3268D02*
X3806Y3268D01*
X3880Y3268D02*
X3892Y3268D01*
X3793Y3267D02*
X3805Y3267D01*
X3880Y3267D02*
X3892Y3267D01*
X3793Y3266D02*
X3805Y3266D01*
X3881Y3266D02*
X3892Y3266D01*
X3793Y3265D02*
X3805Y3265D01*
X3881Y3265D02*
X3892Y3265D01*
X3793Y3264D02*
X3804Y3264D01*
X3882Y3264D02*
X3892Y3264D01*
X3793Y3263D02*
X3804Y3263D01*
X3882Y3263D02*
X3892Y3263D01*
X3793Y3262D02*
X3804Y3262D01*
X3882Y3262D02*
X3892Y3262D01*
X3793Y3261D02*
X3803Y3261D01*
X3882Y3261D02*
X3892Y3261D01*
X3793Y3260D02*
X3803Y3260D01*
X3883Y3260D02*
X3892Y3260D01*
X3793Y3259D02*
X3803Y3259D01*
X3883Y3259D02*
X3892Y3259D01*
X3793Y3258D02*
X3803Y3258D01*
X3883Y3258D02*
X3892Y3258D01*
X3793Y3257D02*
X3803Y3257D01*
X3883Y3257D02*
X3892Y3257D01*
X3793Y3256D02*
X3803Y3256D01*
X3883Y3256D02*
X3892Y3256D01*
X3793Y3255D02*
X3803Y3255D01*
X3883Y3255D02*
X3892Y3255D01*
X3793Y3254D02*
X3803Y3254D01*
X3883Y3254D02*
X3892Y3254D01*
X3793Y3253D02*
X3802Y3253D01*
X3883Y3253D02*
X3892Y3253D01*
X3793Y3252D02*
X3802Y3252D01*
X3883Y3252D02*
X3892Y3252D01*
X3793Y3251D02*
X3802Y3251D01*
X3883Y3251D02*
X3892Y3251D01*
X3793Y3250D02*
X3803Y3250D01*
X3883Y3250D02*
X3892Y3250D01*
X3793Y3249D02*
X3803Y3249D01*
X3883Y3249D02*
X3892Y3249D01*
X3793Y3248D02*
X3803Y3248D01*
X3883Y3248D02*
X3892Y3248D01*
X3793Y3247D02*
X3803Y3247D01*
X3883Y3247D02*
X3892Y3247D01*
X3793Y3246D02*
X3803Y3246D01*
X3883Y3246D02*
X3892Y3246D01*
X3793Y3245D02*
X3803Y3245D01*
X3883Y3245D02*
X3892Y3245D01*
X3793Y3244D02*
X3803Y3244D01*
X3883Y3244D02*
X3892Y3244D01*
X3793Y3243D02*
X3803Y3243D01*
X3882Y3243D02*
X3892Y3243D01*
X3793Y3242D02*
X3804Y3242D01*
X3882Y3242D02*
X3892Y3242D01*
X3793Y3241D02*
X3804Y3241D01*
X3882Y3241D02*
X3892Y3241D01*
X3793Y3240D02*
X3804Y3240D01*
X3882Y3240D02*
X3892Y3240D01*
X3793Y3239D02*
X3805Y3239D01*
X3881Y3239D02*
X3892Y3239D01*
X3793Y3238D02*
X3805Y3238D01*
X3881Y3238D02*
X3892Y3238D01*
X3793Y3237D02*
X3805Y3237D01*
X3880Y3237D02*
X3892Y3237D01*
X3793Y3236D02*
X3806Y3236D01*
X3880Y3236D02*
X3892Y3236D01*
X3793Y3235D02*
X3806Y3235D01*
X3880Y3235D02*
X3892Y3235D01*
X3793Y3234D02*
X3807Y3234D01*
X3879Y3234D02*
X3892Y3234D01*
X3793Y3233D02*
X3807Y3233D01*
X3879Y3233D02*
X3892Y3233D01*
X3793Y3232D02*
X3808Y3232D01*
X3878Y3232D02*
X3892Y3232D01*
X3793Y3231D02*
X3808Y3231D01*
X3877Y3231D02*
X3892Y3231D01*
X3793Y3230D02*
X3809Y3230D01*
X3877Y3230D02*
X3892Y3230D01*
X3793Y3229D02*
X3810Y3229D01*
X3876Y3229D02*
X3892Y3229D01*
X3793Y3228D02*
X3811Y3228D01*
X3875Y3228D02*
X3892Y3228D01*
X3793Y3227D02*
X3811Y3227D01*
X3875Y3227D02*
X3892Y3227D01*
X3793Y3226D02*
X3812Y3226D01*
X3874Y3226D02*
X3892Y3226D01*
X3793Y3225D02*
X3813Y3225D01*
X3873Y3225D02*
X3892Y3225D01*
X3793Y3224D02*
X3814Y3224D01*
X3872Y3224D02*
X3892Y3224D01*
X3793Y3223D02*
X3815Y3223D01*
X3871Y3223D02*
X3892Y3223D01*
X3793Y3222D02*
X3816Y3222D01*
X3870Y3222D02*
X3892Y3222D01*
X3793Y3221D02*
X3817Y3221D01*
X3869Y3221D02*
X3892Y3221D01*
X3793Y3220D02*
X3819Y3220D01*
X3867Y3220D02*
X3892Y3220D01*
X3793Y3219D02*
X3820Y3219D01*
X3866Y3219D02*
X3892Y3219D01*
X3793Y3218D02*
X3821Y3218D01*
X3864Y3218D02*
X3892Y3218D01*
X3793Y3217D02*
X3823Y3217D01*
X3863Y3217D02*
X3892Y3217D01*
X3793Y3216D02*
X3825Y3216D01*
X3861Y3216D02*
X3892Y3216D01*
X3793Y3215D02*
X3827Y3215D01*
X3859Y3215D02*
X3892Y3215D01*
X3793Y3214D02*
X3830Y3214D01*
X3856Y3214D02*
X3892Y3214D01*
X3793Y3213D02*
X3834Y3213D01*
X3852Y3213D02*
X3892Y3213D01*
X3793Y3212D02*
X3892Y3212D01*
X3793Y3211D02*
X3892Y3211D01*
X3793Y3210D02*
X3892Y3210D01*
X3793Y3209D02*
X3892Y3209D01*
X3793Y3208D02*
X3892Y3208D01*
X3793Y3207D02*
X3892Y3207D01*
X3793Y3206D02*
X3892Y3206D01*
X3793Y3205D02*
X3892Y3205D01*
X3793Y3204D02*
X3892Y3204D01*
X3793Y3203D02*
X3892Y3203D01*
X3794Y2792D02*
X3892Y2792D01*
X3793Y2791D02*
X3892Y2791D01*
X3793Y2790D02*
X3892Y2790D01*
X3793Y2789D02*
X3892Y2789D01*
X3793Y2788D02*
X3892Y2788D01*
X3793Y2787D02*
X3892Y2787D01*
X3793Y2786D02*
X3892Y2786D01*
X3793Y2785D02*
X3892Y2785D01*
X3793Y2784D02*
X3892Y2784D01*
X3793Y2783D02*
X3892Y2783D01*
X3793Y2782D02*
X3892Y2782D01*
X3793Y2781D02*
X3834Y2781D01*
X3852Y2781D02*
X3892Y2781D01*
X3793Y2780D02*
X3830Y2780D01*
X3856Y2780D02*
X3892Y2780D01*
X3793Y2779D02*
X3827Y2779D01*
X3859Y2779D02*
X3892Y2779D01*
X3793Y2778D02*
X3825Y2778D01*
X3861Y2778D02*
X3892Y2778D01*
X3793Y2777D02*
X3823Y2777D01*
X3863Y2777D02*
X3892Y2777D01*
X3793Y2776D02*
X3821Y2776D01*
X3864Y2776D02*
X3892Y2776D01*
X3793Y2775D02*
X3820Y2775D01*
X3866Y2775D02*
X3892Y2775D01*
X3793Y2774D02*
X3818Y2774D01*
X3867Y2774D02*
X3892Y2774D01*
X3793Y2773D02*
X3817Y2773D01*
X3869Y2773D02*
X3892Y2773D01*
X3793Y2772D02*
X3816Y2772D01*
X3870Y2772D02*
X3892Y2772D01*
X3793Y2771D02*
X3815Y2771D01*
X3871Y2771D02*
X3892Y2771D01*
X3793Y2770D02*
X3814Y2770D01*
X3872Y2770D02*
X3892Y2770D01*
X3793Y2769D02*
X3813Y2769D01*
X3873Y2769D02*
X3892Y2769D01*
X3793Y2768D02*
X3812Y2768D01*
X3874Y2768D02*
X3892Y2768D01*
X3793Y2767D02*
X3811Y2767D01*
X3875Y2767D02*
X3892Y2767D01*
X3793Y2766D02*
X3810Y2766D01*
X3875Y2766D02*
X3892Y2766D01*
X3793Y2765D02*
X3810Y2765D01*
X3876Y2765D02*
X3892Y2765D01*
X3793Y2764D02*
X3809Y2764D01*
X3877Y2764D02*
X3892Y2764D01*
X3793Y2763D02*
X3808Y2763D01*
X3877Y2763D02*
X3892Y2763D01*
X3793Y2762D02*
X3808Y2762D01*
X3878Y2762D02*
X3892Y2762D01*
X3793Y2761D02*
X3807Y2761D01*
X3879Y2761D02*
X3892Y2761D01*
X3793Y2760D02*
X3807Y2760D01*
X3879Y2760D02*
X3892Y2760D01*
X3793Y2759D02*
X3806Y2759D01*
X3880Y2759D02*
X3892Y2759D01*
X3793Y2758D02*
X3806Y2758D01*
X3880Y2758D02*
X3892Y2758D01*
X3793Y2757D02*
X3805Y2757D01*
X3880Y2757D02*
X3892Y2757D01*
X3793Y2756D02*
X3805Y2756D01*
X3881Y2756D02*
X3892Y2756D01*
X3793Y2755D02*
X3805Y2755D01*
X3881Y2755D02*
X3892Y2755D01*
X3793Y2754D02*
X3804Y2754D01*
X3882Y2754D02*
X3892Y2754D01*
X3793Y2753D02*
X3804Y2753D01*
X3882Y2753D02*
X3892Y2753D01*
X3793Y2752D02*
X3804Y2752D01*
X3882Y2752D02*
X3892Y2752D01*
X3793Y2751D02*
X3803Y2751D01*
X3882Y2751D02*
X3892Y2751D01*
X3793Y2750D02*
X3803Y2750D01*
X3883Y2750D02*
X3892Y2750D01*
X3793Y2749D02*
X3803Y2749D01*
X3883Y2749D02*
X3892Y2749D01*
X3793Y2748D02*
X3803Y2748D01*
X3883Y2748D02*
X3892Y2748D01*
X3793Y2747D02*
X3803Y2747D01*
X3883Y2747D02*
X3892Y2747D01*
X3793Y2746D02*
X3803Y2746D01*
X3883Y2746D02*
X3892Y2746D01*
X3793Y2745D02*
X3803Y2745D01*
X3883Y2745D02*
X3892Y2745D01*
X3793Y2744D02*
X3803Y2744D01*
X3883Y2744D02*
X3892Y2744D01*
X3793Y2743D02*
X3802Y2743D01*
X3883Y2743D02*
X3892Y2743D01*
X3793Y2742D02*
X3802Y2742D01*
X3883Y2742D02*
X3892Y2742D01*
X3793Y2741D02*
X3802Y2741D01*
X3883Y2741D02*
X3892Y2741D01*
X3793Y2740D02*
X3803Y2740D01*
X3883Y2740D02*
X3892Y2740D01*
X3793Y2739D02*
X3803Y2739D01*
X3883Y2739D02*
X3892Y2739D01*
X3793Y2738D02*
X3803Y2738D01*
X3883Y2738D02*
X3892Y2738D01*
X3793Y2737D02*
X3803Y2737D01*
X3883Y2737D02*
X3892Y2737D01*
X3793Y2736D02*
X3803Y2736D01*
X3883Y2736D02*
X3892Y2736D01*
X3793Y2735D02*
X3803Y2735D01*
X3883Y2735D02*
X3892Y2735D01*
X3793Y2734D02*
X3803Y2734D01*
X3883Y2734D02*
X3892Y2734D01*
X3793Y2733D02*
X3803Y2733D01*
X3882Y2733D02*
X3892Y2733D01*
X3793Y2732D02*
X3804Y2732D01*
X3882Y2732D02*
X3892Y2732D01*
X3793Y2731D02*
X3804Y2731D01*
X3882Y2731D02*
X3892Y2731D01*
X3793Y2730D02*
X3804Y2730D01*
X3882Y2730D02*
X3892Y2730D01*
X3793Y2729D02*
X3805Y2729D01*
X3881Y2729D02*
X3892Y2729D01*
X3793Y2728D02*
X3805Y2728D01*
X3881Y2728D02*
X3892Y2728D01*
X3793Y2727D02*
X3805Y2727D01*
X3880Y2727D02*
X3892Y2727D01*
X3793Y2726D02*
X3806Y2726D01*
X3880Y2726D02*
X3892Y2726D01*
X3793Y2725D02*
X3806Y2725D01*
X3880Y2725D02*
X3892Y2725D01*
X3793Y2724D02*
X3807Y2724D01*
X3879Y2724D02*
X3892Y2724D01*
X3793Y2723D02*
X3807Y2723D01*
X3879Y2723D02*
X3892Y2723D01*
X3793Y2722D02*
X3808Y2722D01*
X3878Y2722D02*
X3892Y2722D01*
X3793Y2721D02*
X3808Y2721D01*
X3877Y2721D02*
X3892Y2721D01*
X3793Y2720D02*
X3809Y2720D01*
X3877Y2720D02*
X3892Y2720D01*
X3793Y2719D02*
X3810Y2719D01*
X3876Y2719D02*
X3892Y2719D01*
X3793Y2718D02*
X3811Y2718D01*
X3875Y2718D02*
X3892Y2718D01*
X3793Y2717D02*
X3811Y2717D01*
X3875Y2717D02*
X3892Y2717D01*
X3793Y2716D02*
X3812Y2716D01*
X3874Y2716D02*
X3892Y2716D01*
X3793Y2715D02*
X3813Y2715D01*
X3873Y2715D02*
X3892Y2715D01*
X3793Y2714D02*
X3814Y2714D01*
X3872Y2714D02*
X3892Y2714D01*
X3793Y2713D02*
X3815Y2713D01*
X3871Y2713D02*
X3892Y2713D01*
X3793Y2712D02*
X3816Y2712D01*
X3870Y2712D02*
X3892Y2712D01*
X3793Y2711D02*
X3817Y2711D01*
X3869Y2711D02*
X3892Y2711D01*
X3793Y2710D02*
X3819Y2710D01*
X3867Y2710D02*
X3892Y2710D01*
X3793Y2709D02*
X3820Y2709D01*
X3866Y2709D02*
X3892Y2709D01*
X3793Y2708D02*
X3821Y2708D01*
X3864Y2708D02*
X3892Y2708D01*
X3793Y2707D02*
X3823Y2707D01*
X3863Y2707D02*
X3892Y2707D01*
X3793Y2706D02*
X3825Y2706D01*
X3861Y2706D02*
X3892Y2706D01*
X3793Y2705D02*
X3827Y2705D01*
X3859Y2705D02*
X3892Y2705D01*
X3793Y2704D02*
X3830Y2704D01*
X3856Y2704D02*
X3892Y2704D01*
X3793Y2703D02*
X3834Y2703D01*
X3852Y2703D02*
X3892Y2703D01*
X3793Y2702D02*
X3892Y2702D01*
X3793Y2701D02*
X3892Y2701D01*
X3793Y2700D02*
X3892Y2700D01*
X3793Y2699D02*
X3892Y2699D01*
X3793Y2698D02*
X3892Y2698D01*
X3793Y2697D02*
X3892Y2697D01*
X3793Y2696D02*
X3892Y2696D01*
X3793Y2695D02*
X3892Y2695D01*
X3793Y2694D02*
X3892Y2694D01*
X3793Y2693D02*
X3892Y2693D01*
X1943Y1675D02*
X1943Y1675D01*
X1936Y1674D02*
X1950Y1674D01*
X1933Y1673D02*
X1953Y1673D01*
X1930Y1672D02*
X1956Y1672D01*
X1928Y1671D02*
X1958Y1671D01*
X1926Y1670D02*
X1960Y1670D01*
X1925Y1669D02*
X1961Y1669D01*
X1923Y1668D02*
X1963Y1668D01*
X1922Y1667D02*
X1964Y1667D01*
X1921Y1666D02*
X1965Y1666D01*
X1920Y1665D02*
X1966Y1665D01*
X1919Y1664D02*
X1967Y1664D01*
X1918Y1663D02*
X1968Y1663D01*
X1917Y1662D02*
X1969Y1662D01*
X1917Y1661D02*
X1969Y1661D01*
X1916Y1660D02*
X1970Y1660D01*
X1915Y1659D02*
X1971Y1659D01*
X1915Y1658D02*
X1971Y1658D01*
X1914Y1657D02*
X1938Y1657D01*
X1948Y1657D02*
X1972Y1657D01*
X1914Y1656D02*
X1935Y1656D01*
X1951Y1656D02*
X1972Y1656D01*
X1913Y1655D02*
X1934Y1655D01*
X1952Y1655D02*
X1973Y1655D01*
X1913Y1654D02*
X1932Y1654D01*
X1953Y1654D02*
X1973Y1654D01*
X1913Y1653D02*
X1931Y1653D01*
X1955Y1653D02*
X1973Y1653D01*
X1912Y1652D02*
X1930Y1652D01*
X1955Y1652D02*
X1974Y1652D01*
X1912Y1651D02*
X1930Y1651D01*
X1956Y1651D02*
X1974Y1651D01*
X1912Y1650D02*
X1929Y1650D01*
X1957Y1650D02*
X1974Y1650D01*
X1911Y1649D02*
X1928Y1649D01*
X1958Y1649D02*
X1975Y1649D01*
X1911Y1648D02*
X1928Y1648D01*
X1958Y1648D02*
X1975Y1648D01*
X1911Y1647D02*
X1928Y1647D01*
X1958Y1647D02*
X1975Y1647D01*
X1911Y1646D02*
X1927Y1646D01*
X1959Y1646D02*
X1975Y1646D01*
X1911Y1645D02*
X1927Y1645D01*
X1959Y1645D02*
X1975Y1645D01*
X1911Y1644D02*
X1927Y1644D01*
X1959Y1644D02*
X1975Y1644D01*
X1910Y1643D02*
X1927Y1643D01*
X1959Y1643D02*
X1975Y1643D01*
X1910Y1642D02*
X1927Y1642D01*
X1959Y1642D02*
X1975Y1642D01*
X1910Y1641D02*
X1927Y1641D01*
X1959Y1641D02*
X1975Y1641D01*
X1911Y1640D02*
X1927Y1640D01*
X1959Y1640D02*
X1975Y1640D01*
X1911Y1639D02*
X1927Y1639D01*
X1959Y1639D02*
X1975Y1639D01*
X1911Y1638D02*
X1927Y1638D01*
X1959Y1638D02*
X1975Y1638D01*
X1911Y1637D02*
X1928Y1637D01*
X1958Y1637D02*
X1975Y1637D01*
X1911Y1636D02*
X1928Y1636D01*
X1958Y1636D02*
X1975Y1636D01*
X1911Y1635D02*
X1928Y1635D01*
X1957Y1635D02*
X1975Y1635D01*
X1912Y1634D02*
X1929Y1634D01*
X1957Y1634D02*
X1974Y1634D01*
X1912Y1633D02*
X1930Y1633D01*
X1956Y1633D02*
X1974Y1633D01*
X1912Y1632D02*
X1930Y1632D01*
X1955Y1632D02*
X1974Y1632D01*
X1913Y1631D02*
X1931Y1631D01*
X1954Y1631D02*
X1973Y1631D01*
X1913Y1630D02*
X1932Y1630D01*
X1953Y1630D02*
X1973Y1630D01*
X1913Y1629D02*
X1934Y1629D01*
X1952Y1629D02*
X1973Y1629D01*
X1914Y1628D02*
X1935Y1628D01*
X1951Y1628D02*
X1972Y1628D01*
X1914Y1627D02*
X1938Y1627D01*
X1948Y1627D02*
X1972Y1627D01*
X1915Y1626D02*
X1971Y1626D01*
X1915Y1625D02*
X1971Y1625D01*
X1916Y1624D02*
X1970Y1624D01*
X1917Y1623D02*
X1969Y1623D01*
X1917Y1622D02*
X1969Y1622D01*
X1918Y1621D02*
X1968Y1621D01*
X1919Y1620D02*
X1967Y1620D01*
X1920Y1619D02*
X1966Y1619D01*
X1921Y1618D02*
X1965Y1618D01*
X1922Y1617D02*
X1964Y1617D01*
X1923Y1616D02*
X1963Y1616D01*
X1925Y1615D02*
X1961Y1615D01*
X1926Y1614D02*
X1960Y1614D01*
X1928Y1613D02*
X1958Y1613D01*
X1930Y1612D02*
X1956Y1612D01*
X1933Y1611D02*
X1953Y1611D01*
X1936Y1610D02*
X1950Y1610D01*
X1943Y1575D02*
X1943Y1575D01*
X1936Y1574D02*
X1950Y1574D01*
X1933Y1573D02*
X1953Y1573D01*
X1930Y1572D02*
X1956Y1572D01*
X1928Y1571D02*
X1958Y1571D01*
X1926Y1570D02*
X1960Y1570D01*
X1925Y1569D02*
X1961Y1569D01*
X1923Y1568D02*
X1963Y1568D01*
X1922Y1567D02*
X1964Y1567D01*
X1921Y1566D02*
X1965Y1566D01*
X1920Y1565D02*
X1966Y1565D01*
X1919Y1564D02*
X1967Y1564D01*
X1918Y1563D02*
X1968Y1563D01*
X1917Y1562D02*
X1969Y1562D01*
X1917Y1561D02*
X1969Y1561D01*
X1916Y1560D02*
X1970Y1560D01*
X1915Y1559D02*
X1971Y1559D01*
X1915Y1558D02*
X1971Y1558D01*
X1914Y1557D02*
X1938Y1557D01*
X1948Y1557D02*
X1972Y1557D01*
X1914Y1556D02*
X1935Y1556D01*
X1951Y1556D02*
X1972Y1556D01*
X1913Y1555D02*
X1934Y1555D01*
X1952Y1555D02*
X1973Y1555D01*
X1913Y1554D02*
X1932Y1554D01*
X1953Y1554D02*
X1973Y1554D01*
X1913Y1553D02*
X1931Y1553D01*
X1955Y1553D02*
X1973Y1553D01*
X1912Y1552D02*
X1930Y1552D01*
X1955Y1552D02*
X1974Y1552D01*
X1912Y1551D02*
X1930Y1551D01*
X1956Y1551D02*
X1974Y1551D01*
X1912Y1550D02*
X1929Y1550D01*
X1957Y1550D02*
X1974Y1550D01*
X1911Y1549D02*
X1928Y1549D01*
X1957Y1549D02*
X1975Y1549D01*
X1911Y1548D02*
X1928Y1548D01*
X1958Y1548D02*
X1975Y1548D01*
X1911Y1547D02*
X1928Y1547D01*
X1958Y1547D02*
X1975Y1547D01*
X1911Y1546D02*
X1927Y1546D01*
X1959Y1546D02*
X1975Y1546D01*
X1911Y1545D02*
X1927Y1545D01*
X1959Y1545D02*
X1975Y1545D01*
X1911Y1544D02*
X1927Y1544D01*
X1959Y1544D02*
X1975Y1544D01*
X1910Y1543D02*
X1927Y1543D01*
X1959Y1543D02*
X1975Y1543D01*
X1910Y1542D02*
X1927Y1542D01*
X1959Y1542D02*
X1975Y1542D01*
X1910Y1541D02*
X1927Y1541D01*
X1959Y1541D02*
X1975Y1541D01*
X1911Y1540D02*
X1927Y1540D01*
X1959Y1540D02*
X1975Y1540D01*
X1911Y1539D02*
X1927Y1539D01*
X1959Y1539D02*
X1975Y1539D01*
X1911Y1538D02*
X1927Y1538D01*
X1959Y1538D02*
X1975Y1538D01*
X1911Y1537D02*
X1928Y1537D01*
X1958Y1537D02*
X1975Y1537D01*
X1911Y1536D02*
X1928Y1536D01*
X1958Y1536D02*
X1975Y1536D01*
X1911Y1535D02*
X1928Y1535D01*
X1957Y1535D02*
X1975Y1535D01*
X1912Y1534D02*
X1929Y1534D01*
X1957Y1534D02*
X1974Y1534D01*
X1912Y1533D02*
X1930Y1533D01*
X1956Y1533D02*
X1974Y1533D01*
X1912Y1532D02*
X1930Y1532D01*
X1955Y1532D02*
X1974Y1532D01*
X1913Y1531D02*
X1931Y1531D01*
X1954Y1531D02*
X1973Y1531D01*
X1913Y1530D02*
X1932Y1530D01*
X1953Y1530D02*
X1973Y1530D01*
X1913Y1529D02*
X1934Y1529D01*
X1952Y1529D02*
X1973Y1529D01*
X1914Y1528D02*
X1935Y1528D01*
X1950Y1528D02*
X1972Y1528D01*
X1914Y1527D02*
X1938Y1527D01*
X1948Y1527D02*
X1972Y1527D01*
X1915Y1526D02*
X1971Y1526D01*
X1915Y1525D02*
X1970Y1525D01*
X1916Y1524D02*
X1970Y1524D01*
X1917Y1523D02*
X1969Y1523D01*
X1917Y1522D02*
X1969Y1522D01*
X1918Y1521D02*
X1968Y1521D01*
X1919Y1520D02*
X1967Y1520D01*
X1920Y1519D02*
X1966Y1519D01*
X1921Y1518D02*
X1965Y1518D01*
X1922Y1517D02*
X1964Y1517D01*
X1923Y1516D02*
X1963Y1516D01*
X1925Y1515D02*
X1961Y1515D01*
X1926Y1514D02*
X1960Y1514D01*
X1928Y1513D02*
X1958Y1513D01*
X1930Y1512D02*
X1956Y1512D01*
X1933Y1511D02*
X1953Y1511D01*
X1936Y1510D02*
X1950Y1510D01*
X1943Y1475D02*
X1943Y1475D01*
X1936Y1474D02*
X1950Y1474D01*
X1933Y1473D02*
X1953Y1473D01*
X1930Y1472D02*
X1956Y1472D01*
X1928Y1471D02*
X1958Y1471D01*
X1926Y1470D02*
X1960Y1470D01*
X1925Y1469D02*
X1961Y1469D01*
X1923Y1468D02*
X1963Y1468D01*
X1922Y1467D02*
X1964Y1467D01*
X1921Y1466D02*
X1965Y1466D01*
X1920Y1465D02*
X1966Y1465D01*
X1919Y1464D02*
X1967Y1464D01*
X1918Y1463D02*
X1968Y1463D01*
X1917Y1462D02*
X1969Y1462D01*
X1917Y1461D02*
X1969Y1461D01*
X1916Y1460D02*
X1970Y1460D01*
X1915Y1459D02*
X1971Y1459D01*
X1915Y1458D02*
X1971Y1458D01*
X1914Y1457D02*
X1938Y1457D01*
X1948Y1457D02*
X1972Y1457D01*
X1914Y1456D02*
X1935Y1456D01*
X1951Y1456D02*
X1972Y1456D01*
X1913Y1455D02*
X1934Y1455D01*
X1952Y1455D02*
X1973Y1455D01*
X1913Y1454D02*
X1932Y1454D01*
X1953Y1454D02*
X1973Y1454D01*
X1913Y1453D02*
X1931Y1453D01*
X1955Y1453D02*
X1973Y1453D01*
X1912Y1452D02*
X1930Y1452D01*
X1955Y1452D02*
X1974Y1452D01*
X1912Y1451D02*
X1930Y1451D01*
X1956Y1451D02*
X1974Y1451D01*
X1912Y1450D02*
X1929Y1450D01*
X1957Y1450D02*
X1974Y1450D01*
X1911Y1449D02*
X1928Y1449D01*
X1958Y1449D02*
X1975Y1449D01*
X1911Y1448D02*
X1928Y1448D01*
X1958Y1448D02*
X1975Y1448D01*
X1911Y1447D02*
X1928Y1447D01*
X1958Y1447D02*
X1975Y1447D01*
X1911Y1446D02*
X1927Y1446D01*
X1959Y1446D02*
X1975Y1446D01*
X1911Y1445D02*
X1927Y1445D01*
X1959Y1445D02*
X1975Y1445D01*
X1911Y1444D02*
X1927Y1444D01*
X1959Y1444D02*
X1975Y1444D01*
X1910Y1443D02*
X1927Y1443D01*
X1959Y1443D02*
X1975Y1443D01*
X1910Y1442D02*
X1927Y1442D01*
X1959Y1442D02*
X1975Y1442D01*
X1910Y1441D02*
X1927Y1441D01*
X1959Y1441D02*
X1975Y1441D01*
X1911Y1440D02*
X1927Y1440D01*
X1959Y1440D02*
X1975Y1440D01*
X1911Y1439D02*
X1927Y1439D01*
X1959Y1439D02*
X1975Y1439D01*
X1911Y1438D02*
X1927Y1438D01*
X1959Y1438D02*
X1975Y1438D01*
X1911Y1437D02*
X1928Y1437D01*
X1958Y1437D02*
X1975Y1437D01*
X1911Y1436D02*
X1928Y1436D01*
X1958Y1436D02*
X1975Y1436D01*
X1911Y1435D02*
X1928Y1435D01*
X1957Y1435D02*
X1975Y1435D01*
X1912Y1434D02*
X1929Y1434D01*
X1957Y1434D02*
X1974Y1434D01*
X1912Y1433D02*
X1930Y1433D01*
X1956Y1433D02*
X1974Y1433D01*
X1912Y1432D02*
X1931Y1432D01*
X1955Y1432D02*
X1974Y1432D01*
X1913Y1431D02*
X1931Y1431D01*
X1954Y1431D02*
X1973Y1431D01*
X1913Y1430D02*
X1933Y1430D01*
X1953Y1430D02*
X1973Y1430D01*
X1913Y1429D02*
X1934Y1429D01*
X1952Y1429D02*
X1973Y1429D01*
X1914Y1428D02*
X1935Y1428D01*
X1950Y1428D02*
X1972Y1428D01*
X1914Y1427D02*
X1938Y1427D01*
X1948Y1427D02*
X1972Y1427D01*
X1915Y1426D02*
X1971Y1426D01*
X1915Y1425D02*
X1970Y1425D01*
X1916Y1424D02*
X1970Y1424D01*
X1917Y1423D02*
X1969Y1423D01*
X1917Y1422D02*
X1969Y1422D01*
X1918Y1421D02*
X1968Y1421D01*
X1919Y1420D02*
X1967Y1420D01*
X1920Y1419D02*
X1966Y1419D01*
X1921Y1418D02*
X1965Y1418D01*
X1922Y1417D02*
X1964Y1417D01*
X1923Y1416D02*
X1963Y1416D01*
X1925Y1415D02*
X1961Y1415D01*
X1926Y1414D02*
X1959Y1414D01*
X1928Y1413D02*
X1958Y1413D01*
X1930Y1412D02*
X1956Y1412D01*
X1933Y1411D02*
X1953Y1411D01*
X1936Y1410D02*
X1950Y1410D01*
X1943Y1375D02*
X1943Y1375D01*
X1936Y1374D02*
X1950Y1374D01*
X1933Y1373D02*
X1953Y1373D01*
X1930Y1372D02*
X1956Y1372D01*
X1928Y1371D02*
X1958Y1371D01*
X1926Y1370D02*
X1960Y1370D01*
X1925Y1369D02*
X1961Y1369D01*
X1923Y1368D02*
X1963Y1368D01*
X1922Y1367D02*
X1964Y1367D01*
X1921Y1366D02*
X1965Y1366D01*
X1920Y1365D02*
X1966Y1365D01*
X1919Y1364D02*
X1967Y1364D01*
X1918Y1363D02*
X1968Y1363D01*
X1917Y1362D02*
X1969Y1362D01*
X1917Y1361D02*
X1969Y1361D01*
X1916Y1360D02*
X1970Y1360D01*
X1915Y1359D02*
X1971Y1359D01*
X1915Y1358D02*
X1971Y1358D01*
X1914Y1357D02*
X1938Y1357D01*
X1948Y1357D02*
X1972Y1357D01*
X1914Y1356D02*
X1935Y1356D01*
X1951Y1356D02*
X1972Y1356D01*
X1913Y1355D02*
X1934Y1355D01*
X1952Y1355D02*
X1973Y1355D01*
X1913Y1354D02*
X1932Y1354D01*
X1953Y1354D02*
X1973Y1354D01*
X1913Y1353D02*
X1931Y1353D01*
X1955Y1353D02*
X1973Y1353D01*
X1912Y1352D02*
X1930Y1352D01*
X1955Y1352D02*
X1974Y1352D01*
X1912Y1351D02*
X1930Y1351D01*
X1956Y1351D02*
X1974Y1351D01*
X1912Y1350D02*
X1929Y1350D01*
X1957Y1350D02*
X1974Y1350D01*
X1911Y1349D02*
X1928Y1349D01*
X1958Y1349D02*
X1975Y1349D01*
X1911Y1348D02*
X1928Y1348D01*
X1958Y1348D02*
X1975Y1348D01*
X1911Y1347D02*
X1928Y1347D01*
X1958Y1347D02*
X1975Y1347D01*
X1911Y1346D02*
X1927Y1346D01*
X1959Y1346D02*
X1975Y1346D01*
X1911Y1345D02*
X1927Y1345D01*
X1959Y1345D02*
X1975Y1345D01*
X1911Y1344D02*
X1927Y1344D01*
X1959Y1344D02*
X1975Y1344D01*
X1910Y1343D02*
X1927Y1343D01*
X1959Y1343D02*
X1975Y1343D01*
X1910Y1342D02*
X1927Y1342D01*
X1959Y1342D02*
X1975Y1342D01*
X1910Y1341D02*
X1927Y1341D01*
X1959Y1341D02*
X1975Y1341D01*
X1911Y1340D02*
X1927Y1340D01*
X1959Y1340D02*
X1975Y1340D01*
X1911Y1339D02*
X1927Y1339D01*
X1959Y1339D02*
X1975Y1339D01*
X1911Y1338D02*
X1927Y1338D01*
X1959Y1338D02*
X1975Y1338D01*
X1911Y1337D02*
X1928Y1337D01*
X1958Y1337D02*
X1975Y1337D01*
X1911Y1336D02*
X1928Y1336D01*
X1958Y1336D02*
X1975Y1336D01*
X1911Y1335D02*
X1928Y1335D01*
X1957Y1335D02*
X1975Y1335D01*
X1912Y1334D02*
X1929Y1334D01*
X1957Y1334D02*
X1974Y1334D01*
X1912Y1333D02*
X1930Y1333D01*
X1956Y1333D02*
X1974Y1333D01*
X1912Y1332D02*
X1930Y1332D01*
X1955Y1332D02*
X1974Y1332D01*
X1913Y1331D02*
X1931Y1331D01*
X1954Y1331D02*
X1973Y1331D01*
X1913Y1330D02*
X1933Y1330D01*
X1953Y1330D02*
X1973Y1330D01*
X1913Y1329D02*
X1934Y1329D01*
X1952Y1329D02*
X1973Y1329D01*
X1914Y1328D02*
X1935Y1328D01*
X1951Y1328D02*
X1972Y1328D01*
X1914Y1327D02*
X1938Y1327D01*
X1948Y1327D02*
X1972Y1327D01*
X1915Y1326D02*
X1971Y1326D01*
X1915Y1325D02*
X1971Y1325D01*
X1916Y1324D02*
X1970Y1324D01*
X1917Y1323D02*
X1969Y1323D01*
X1917Y1322D02*
X1969Y1322D01*
X1918Y1321D02*
X1968Y1321D01*
X1919Y1320D02*
X1967Y1320D01*
X1920Y1319D02*
X1966Y1319D01*
X1921Y1318D02*
X1965Y1318D01*
X1922Y1317D02*
X1964Y1317D01*
X1923Y1316D02*
X1963Y1316D01*
X1925Y1315D02*
X1961Y1315D01*
X1926Y1314D02*
X1960Y1314D01*
X1928Y1313D02*
X1958Y1313D01*
X1930Y1312D02*
X1956Y1312D01*
X1933Y1311D02*
X1953Y1311D01*
X1936Y1310D02*
X1950Y1310D01*
X1943Y1275D02*
X1943Y1275D01*
X1936Y1274D02*
X1950Y1274D01*
X1933Y1273D02*
X1953Y1273D01*
X1930Y1272D02*
X1956Y1272D01*
X1928Y1271D02*
X1958Y1271D01*
X1926Y1270D02*
X1960Y1270D01*
X1925Y1269D02*
X1961Y1269D01*
X1923Y1268D02*
X1963Y1268D01*
X1922Y1267D02*
X1964Y1267D01*
X1921Y1266D02*
X1965Y1266D01*
X1920Y1265D02*
X1966Y1265D01*
X1919Y1264D02*
X1967Y1264D01*
X1918Y1263D02*
X1968Y1263D01*
X1917Y1262D02*
X1969Y1262D01*
X1917Y1261D02*
X1969Y1261D01*
X1916Y1260D02*
X1970Y1260D01*
X1915Y1259D02*
X1971Y1259D01*
X1915Y1258D02*
X1971Y1258D01*
X1914Y1257D02*
X1938Y1257D01*
X1948Y1257D02*
X1972Y1257D01*
X1914Y1256D02*
X1935Y1256D01*
X1951Y1256D02*
X1972Y1256D01*
X1913Y1255D02*
X1934Y1255D01*
X1952Y1255D02*
X1973Y1255D01*
X1913Y1254D02*
X1932Y1254D01*
X1953Y1254D02*
X1973Y1254D01*
X1913Y1253D02*
X1931Y1253D01*
X1955Y1253D02*
X1973Y1253D01*
X1912Y1252D02*
X1930Y1252D01*
X1955Y1252D02*
X1974Y1252D01*
X1912Y1251D02*
X1930Y1251D01*
X1956Y1251D02*
X1974Y1251D01*
X1912Y1250D02*
X1929Y1250D01*
X1957Y1250D02*
X1974Y1250D01*
X1911Y1249D02*
X1928Y1249D01*
X1957Y1249D02*
X1975Y1249D01*
X1911Y1248D02*
X1928Y1248D01*
X1958Y1248D02*
X1975Y1248D01*
X1911Y1247D02*
X1928Y1247D01*
X1958Y1247D02*
X1975Y1247D01*
X1911Y1246D02*
X1927Y1246D01*
X1959Y1246D02*
X1975Y1246D01*
X1911Y1245D02*
X1927Y1245D01*
X1959Y1245D02*
X1975Y1245D01*
X1911Y1244D02*
X1927Y1244D01*
X1959Y1244D02*
X1975Y1244D01*
X1910Y1243D02*
X1927Y1243D01*
X1959Y1243D02*
X1975Y1243D01*
X1910Y1242D02*
X1927Y1242D01*
X1959Y1242D02*
X1975Y1242D01*
X1910Y1241D02*
X1927Y1241D01*
X1959Y1241D02*
X1975Y1241D01*
X1911Y1240D02*
X1927Y1240D01*
X1959Y1240D02*
X1975Y1240D01*
X1911Y1239D02*
X1927Y1239D01*
X1959Y1239D02*
X1975Y1239D01*
X1911Y1238D02*
X1927Y1238D01*
X1959Y1238D02*
X1975Y1238D01*
X1911Y1237D02*
X1928Y1237D01*
X1958Y1237D02*
X1975Y1237D01*
X1911Y1236D02*
X1928Y1236D01*
X1958Y1236D02*
X1975Y1236D01*
X1911Y1235D02*
X1928Y1235D01*
X1957Y1235D02*
X1975Y1235D01*
X1912Y1234D02*
X1929Y1234D01*
X1957Y1234D02*
X1974Y1234D01*
X1912Y1233D02*
X1930Y1233D01*
X1956Y1233D02*
X1974Y1233D01*
X1912Y1232D02*
X1930Y1232D01*
X1955Y1232D02*
X1974Y1232D01*
X1913Y1231D02*
X1931Y1231D01*
X1954Y1231D02*
X1973Y1231D01*
X1913Y1230D02*
X1932Y1230D01*
X1953Y1230D02*
X1973Y1230D01*
X1913Y1229D02*
X1934Y1229D01*
X1952Y1229D02*
X1973Y1229D01*
X1914Y1228D02*
X1935Y1228D01*
X1951Y1228D02*
X1972Y1228D01*
X1914Y1227D02*
X1938Y1227D01*
X1948Y1227D02*
X1972Y1227D01*
X1915Y1226D02*
X1971Y1226D01*
X1915Y1225D02*
X1971Y1225D01*
X1916Y1224D02*
X1970Y1224D01*
X1917Y1223D02*
X1969Y1223D01*
X1917Y1222D02*
X1969Y1222D01*
X1918Y1221D02*
X1968Y1221D01*
X1919Y1220D02*
X1967Y1220D01*
X1920Y1219D02*
X1966Y1219D01*
X1921Y1218D02*
X1965Y1218D01*
X1922Y1217D02*
X1964Y1217D01*
X1923Y1216D02*
X1963Y1216D01*
X1925Y1215D02*
X1961Y1215D01*
X1926Y1214D02*
X1960Y1214D01*
X1928Y1213D02*
X1958Y1213D01*
X1930Y1212D02*
X1956Y1212D01*
X1933Y1211D02*
X1953Y1211D01*
X1936Y1210D02*
X1950Y1210D01*
X1943Y1175D02*
X1943Y1175D01*
X1936Y1174D02*
X1950Y1174D01*
X1933Y1173D02*
X1953Y1173D01*
X1930Y1172D02*
X1956Y1172D01*
X1928Y1171D02*
X1958Y1171D01*
X1926Y1170D02*
X1960Y1170D01*
X1925Y1169D02*
X1961Y1169D01*
X1923Y1168D02*
X1963Y1168D01*
X1922Y1167D02*
X1964Y1167D01*
X1921Y1166D02*
X1965Y1166D01*
X1920Y1165D02*
X1966Y1165D01*
X1919Y1164D02*
X1967Y1164D01*
X1918Y1163D02*
X1968Y1163D01*
X1917Y1162D02*
X1969Y1162D01*
X1917Y1161D02*
X1969Y1161D01*
X1916Y1160D02*
X1970Y1160D01*
X1915Y1159D02*
X1971Y1159D01*
X1915Y1158D02*
X1971Y1158D01*
X1914Y1157D02*
X1938Y1157D01*
X1948Y1157D02*
X1972Y1157D01*
X1914Y1156D02*
X1935Y1156D01*
X1951Y1156D02*
X1972Y1156D01*
X1913Y1155D02*
X1934Y1155D01*
X1952Y1155D02*
X1973Y1155D01*
X1913Y1154D02*
X1932Y1154D01*
X1953Y1154D02*
X1973Y1154D01*
X1913Y1153D02*
X1931Y1153D01*
X1955Y1153D02*
X1973Y1153D01*
X1912Y1152D02*
X1930Y1152D01*
X1955Y1152D02*
X1974Y1152D01*
X1912Y1151D02*
X1930Y1151D01*
X1956Y1151D02*
X1974Y1151D01*
X1912Y1150D02*
X1929Y1150D01*
X1957Y1150D02*
X1974Y1150D01*
X1911Y1149D02*
X1928Y1149D01*
X1958Y1149D02*
X1975Y1149D01*
X1911Y1148D02*
X1928Y1148D01*
X1958Y1148D02*
X1975Y1148D01*
X1911Y1147D02*
X1928Y1147D01*
X1958Y1147D02*
X1975Y1147D01*
X1911Y1146D02*
X1927Y1146D01*
X1959Y1146D02*
X1975Y1146D01*
X1911Y1145D02*
X1927Y1145D01*
X1959Y1145D02*
X1975Y1145D01*
X1911Y1144D02*
X1927Y1144D01*
X1959Y1144D02*
X1975Y1144D01*
X1910Y1143D02*
X1927Y1143D01*
X1959Y1143D02*
X1975Y1143D01*
X1910Y1142D02*
X1927Y1142D01*
X1959Y1142D02*
X1975Y1142D01*
X1910Y1141D02*
X1927Y1141D01*
X1959Y1141D02*
X1975Y1141D01*
X1911Y1140D02*
X1927Y1140D01*
X1959Y1140D02*
X1975Y1140D01*
X1911Y1139D02*
X1927Y1139D01*
X1959Y1139D02*
X1975Y1139D01*
X1911Y1138D02*
X1927Y1138D01*
X1959Y1138D02*
X1975Y1138D01*
X1911Y1137D02*
X1928Y1137D01*
X1958Y1137D02*
X1975Y1137D01*
X1911Y1136D02*
X1928Y1136D01*
X1958Y1136D02*
X1975Y1136D01*
X1911Y1135D02*
X1928Y1135D01*
X1957Y1135D02*
X1975Y1135D01*
X1912Y1134D02*
X1929Y1134D01*
X1957Y1134D02*
X1974Y1134D01*
X1912Y1133D02*
X1930Y1133D01*
X1956Y1133D02*
X1974Y1133D01*
X1912Y1132D02*
X1930Y1132D01*
X1955Y1132D02*
X1974Y1132D01*
X1913Y1131D02*
X1931Y1131D01*
X1954Y1131D02*
X1973Y1131D01*
X1913Y1130D02*
X1933Y1130D01*
X1953Y1130D02*
X1973Y1130D01*
X1913Y1129D02*
X1934Y1129D01*
X1952Y1129D02*
X1973Y1129D01*
X1914Y1128D02*
X1935Y1128D01*
X1950Y1128D02*
X1972Y1128D01*
X1914Y1127D02*
X1938Y1127D01*
X1948Y1127D02*
X1972Y1127D01*
X1915Y1126D02*
X1971Y1126D01*
X1915Y1125D02*
X1970Y1125D01*
X1916Y1124D02*
X1970Y1124D01*
X1917Y1123D02*
X1969Y1123D01*
X1917Y1122D02*
X1969Y1122D01*
X1918Y1121D02*
X1968Y1121D01*
X1919Y1120D02*
X1967Y1120D01*
X1920Y1119D02*
X1966Y1119D01*
X1921Y1118D02*
X1965Y1118D01*
X1922Y1117D02*
X1964Y1117D01*
X1923Y1116D02*
X1963Y1116D01*
X1925Y1115D02*
X1961Y1115D01*
X1926Y1114D02*
X1960Y1114D01*
X1928Y1113D02*
X1958Y1113D01*
X1930Y1112D02*
X1956Y1112D01*
X1933Y1111D02*
X1953Y1111D01*
X1936Y1110D02*
X1950Y1110D01*
D02*
G04 End of Copper1*
M02*