G04 MADE WITH FRITZING*
G04 WWW.FRITZING.ORG*
G04 DOUBLE SIDED*
G04 HOLES PLATED*
G04 CONTOUR ON CENTER OF CONTOUR VECTOR*
%ASAXBY*%
%FSLAX23Y23*%
%MOIN*%
%OFA0B0*%
%SFA1.0B1.0*%
%ADD10C,0.080000*%
%ADD11C,0.110000*%
%ADD12C,0.100000*%
%ADD13C,0.088000*%
%ADD14C,0.087972*%
%ADD15R,0.079958X0.080000*%
%ADD16R,0.088167X0.088000*%
%ADD17R,0.088000X0.088000*%
%ADD18R,0.001000X0.001000*%
%LNMASK0*%
G90*
G70*
G54D10*
X343Y3442D03*
X343Y3342D03*
X343Y3242D03*
X343Y3142D03*
X343Y3042D03*
X343Y2942D03*
X343Y2842D03*
X343Y2742D03*
X343Y2642D03*
X343Y2542D03*
X343Y2442D03*
X343Y2342D03*
X343Y2242D03*
X343Y2142D03*
X343Y2042D03*
X943Y3442D03*
X943Y3342D03*
X943Y3242D03*
X943Y3142D03*
X943Y3042D03*
X943Y2942D03*
X943Y2842D03*
X943Y2742D03*
X943Y2642D03*
X943Y2542D03*
X943Y2442D03*
X943Y2342D03*
X943Y2242D03*
X943Y2142D03*
X943Y2042D03*
X544Y3537D03*
X544Y3437D03*
X644Y3537D03*
X644Y3437D03*
X744Y3537D03*
X744Y3437D03*
G54D11*
X3843Y3252D03*
X3843Y2742D03*
G54D12*
X2823Y2562D03*
X2293Y3442D03*
X3353Y3442D03*
G54D13*
X1743Y542D03*
X1743Y642D03*
X1743Y742D03*
G54D14*
X1743Y842D03*
G54D13*
X3343Y842D03*
X3343Y742D03*
X3343Y642D03*
X3343Y542D03*
X3343Y442D03*
X3343Y342D03*
X3343Y242D03*
X3343Y142D03*
G54D15*
X343Y3442D03*
G54D16*
X1743Y842D03*
G54D17*
X3343Y842D03*
G54D18*
X3789Y3307D02*
X3897Y3307D01*
X3788Y3306D02*
X3897Y3306D01*
X3788Y3305D02*
X3897Y3305D01*
X3788Y3304D02*
X3897Y3304D01*
X3788Y3303D02*
X3897Y3303D01*
X3788Y3302D02*
X3897Y3302D01*
X3788Y3301D02*
X3897Y3301D01*
X3788Y3300D02*
X3897Y3300D01*
X3788Y3299D02*
X3897Y3299D01*
X3788Y3298D02*
X3897Y3298D01*
X3788Y3297D02*
X3897Y3297D01*
X3788Y3296D02*
X3897Y3296D01*
X3788Y3295D02*
X3897Y3295D01*
X3788Y3294D02*
X3897Y3294D01*
X3788Y3293D02*
X3897Y3293D01*
X3788Y3292D02*
X3897Y3292D01*
X3788Y3291D02*
X3897Y3291D01*
X3788Y3290D02*
X3897Y3290D01*
X3788Y3289D02*
X3897Y3289D01*
X3788Y3288D02*
X3897Y3288D01*
X3788Y3287D02*
X3842Y3287D01*
X3844Y3287D02*
X3897Y3287D01*
X3788Y3286D02*
X3834Y3286D01*
X3852Y3286D02*
X3897Y3286D01*
X3788Y3285D02*
X3831Y3285D01*
X3855Y3285D02*
X3897Y3285D01*
X3788Y3284D02*
X3828Y3284D01*
X3858Y3284D02*
X3897Y3284D01*
X3788Y3283D02*
X3826Y3283D01*
X3860Y3283D02*
X3897Y3283D01*
X3788Y3282D02*
X3824Y3282D01*
X3862Y3282D02*
X3897Y3282D01*
X3788Y3281D02*
X3823Y3281D01*
X3863Y3281D02*
X3897Y3281D01*
X3788Y3280D02*
X3821Y3280D01*
X3864Y3280D02*
X3897Y3280D01*
X3788Y3279D02*
X3820Y3279D01*
X3866Y3279D02*
X3897Y3279D01*
X3788Y3278D02*
X3819Y3278D01*
X3867Y3278D02*
X3897Y3278D01*
X3788Y3277D02*
X3818Y3277D01*
X3868Y3277D02*
X3897Y3277D01*
X3788Y3276D02*
X3817Y3276D01*
X3869Y3276D02*
X3897Y3276D01*
X3788Y3275D02*
X3816Y3275D01*
X3870Y3275D02*
X3897Y3275D01*
X3788Y3274D02*
X3815Y3274D01*
X3871Y3274D02*
X3897Y3274D01*
X3788Y3273D02*
X3814Y3273D01*
X3871Y3273D02*
X3897Y3273D01*
X3788Y3272D02*
X3814Y3272D01*
X3872Y3272D02*
X3897Y3272D01*
X3788Y3271D02*
X3813Y3271D01*
X3873Y3271D02*
X3897Y3271D01*
X3788Y3270D02*
X3812Y3270D01*
X3873Y3270D02*
X3897Y3270D01*
X3788Y3269D02*
X3812Y3269D01*
X3874Y3269D02*
X3897Y3269D01*
X3788Y3268D02*
X3811Y3268D01*
X3875Y3268D02*
X3897Y3268D01*
X3788Y3267D02*
X3811Y3267D01*
X3875Y3267D02*
X3897Y3267D01*
X3788Y3266D02*
X3810Y3266D01*
X3876Y3266D02*
X3897Y3266D01*
X3788Y3265D02*
X3810Y3265D01*
X3876Y3265D02*
X3897Y3265D01*
X3788Y3264D02*
X3809Y3264D01*
X3876Y3264D02*
X3897Y3264D01*
X3788Y3263D02*
X3809Y3263D01*
X3877Y3263D02*
X3897Y3263D01*
X3788Y3262D02*
X3809Y3262D01*
X3877Y3262D02*
X3897Y3262D01*
X3788Y3261D02*
X3809Y3261D01*
X3877Y3261D02*
X3897Y3261D01*
X3788Y3260D02*
X3808Y3260D01*
X3878Y3260D02*
X3897Y3260D01*
X3788Y3259D02*
X3808Y3259D01*
X3878Y3259D02*
X3897Y3259D01*
X3788Y3258D02*
X3808Y3258D01*
X3878Y3258D02*
X3897Y3258D01*
X3788Y3257D02*
X3808Y3257D01*
X3878Y3257D02*
X3897Y3257D01*
X3788Y3256D02*
X3808Y3256D01*
X3878Y3256D02*
X3897Y3256D01*
X3788Y3255D02*
X3808Y3255D01*
X3878Y3255D02*
X3897Y3255D01*
X3788Y3254D02*
X3808Y3254D01*
X3878Y3254D02*
X3897Y3254D01*
X3788Y3253D02*
X3807Y3253D01*
X3878Y3253D02*
X3897Y3253D01*
X3788Y3252D02*
X3807Y3252D01*
X3878Y3252D02*
X3897Y3252D01*
X3788Y3251D02*
X3807Y3251D01*
X3878Y3251D02*
X3897Y3251D01*
X3788Y3250D02*
X3808Y3250D01*
X3878Y3250D02*
X3897Y3250D01*
X3788Y3249D02*
X3808Y3249D01*
X3878Y3249D02*
X3897Y3249D01*
X3788Y3248D02*
X3808Y3248D01*
X3878Y3248D02*
X3897Y3248D01*
X3788Y3247D02*
X3808Y3247D01*
X3878Y3247D02*
X3897Y3247D01*
X3788Y3246D02*
X3808Y3246D01*
X3878Y3246D02*
X3897Y3246D01*
X3788Y3245D02*
X3808Y3245D01*
X3878Y3245D02*
X3897Y3245D01*
X3788Y3244D02*
X3808Y3244D01*
X3878Y3244D02*
X3897Y3244D01*
X3788Y3243D02*
X3809Y3243D01*
X3877Y3243D02*
X3897Y3243D01*
X3788Y3242D02*
X3809Y3242D01*
X3877Y3242D02*
X3897Y3242D01*
X3788Y3241D02*
X3809Y3241D01*
X3877Y3241D02*
X3897Y3241D01*
X3788Y3240D02*
X3809Y3240D01*
X3876Y3240D02*
X3897Y3240D01*
X3788Y3239D02*
X3810Y3239D01*
X3876Y3239D02*
X3897Y3239D01*
X3788Y3238D02*
X3810Y3238D01*
X3876Y3238D02*
X3897Y3238D01*
X3788Y3237D02*
X3811Y3237D01*
X3875Y3237D02*
X3897Y3237D01*
X3788Y3236D02*
X3811Y3236D01*
X3875Y3236D02*
X3897Y3236D01*
X3788Y3235D02*
X3812Y3235D01*
X3874Y3235D02*
X3897Y3235D01*
X3788Y3234D02*
X3812Y3234D01*
X3873Y3234D02*
X3897Y3234D01*
X3788Y3233D02*
X3813Y3233D01*
X3873Y3233D02*
X3897Y3233D01*
X3788Y3232D02*
X3814Y3232D01*
X3872Y3232D02*
X3897Y3232D01*
X3788Y3231D02*
X3814Y3231D01*
X3871Y3231D02*
X3897Y3231D01*
X3788Y3230D02*
X3815Y3230D01*
X3871Y3230D02*
X3897Y3230D01*
X3788Y3229D02*
X3816Y3229D01*
X3870Y3229D02*
X3897Y3229D01*
X3788Y3228D02*
X3817Y3228D01*
X3869Y3228D02*
X3897Y3228D01*
X3788Y3227D02*
X3818Y3227D01*
X3868Y3227D02*
X3897Y3227D01*
X3788Y3226D02*
X3819Y3226D01*
X3867Y3226D02*
X3897Y3226D01*
X3788Y3225D02*
X3820Y3225D01*
X3866Y3225D02*
X3897Y3225D01*
X3788Y3224D02*
X3821Y3224D01*
X3864Y3224D02*
X3897Y3224D01*
X3788Y3223D02*
X3823Y3223D01*
X3863Y3223D02*
X3897Y3223D01*
X3788Y3222D02*
X3824Y3222D01*
X3861Y3222D02*
X3897Y3222D01*
X3788Y3221D02*
X3826Y3221D01*
X3860Y3221D02*
X3897Y3221D01*
X3788Y3220D02*
X3828Y3220D01*
X3858Y3220D02*
X3897Y3220D01*
X3788Y3219D02*
X3831Y3219D01*
X3855Y3219D02*
X3897Y3219D01*
X3788Y3218D02*
X3834Y3218D01*
X3852Y3218D02*
X3897Y3218D01*
X3788Y3217D02*
X3897Y3217D01*
X3788Y3216D02*
X3897Y3216D01*
X3788Y3215D02*
X3897Y3215D01*
X3788Y3214D02*
X3897Y3214D01*
X3788Y3213D02*
X3897Y3213D01*
X3788Y3212D02*
X3897Y3212D01*
X3788Y3211D02*
X3897Y3211D01*
X3788Y3210D02*
X3897Y3210D01*
X3788Y3209D02*
X3897Y3209D01*
X3788Y3208D02*
X3897Y3208D01*
X3788Y3207D02*
X3897Y3207D01*
X3788Y3206D02*
X3897Y3206D01*
X3788Y3205D02*
X3897Y3205D01*
X3788Y3204D02*
X3897Y3204D01*
X3788Y3203D02*
X3897Y3203D01*
X3788Y3202D02*
X3897Y3202D01*
X3788Y3201D02*
X3897Y3201D01*
X3788Y3200D02*
X3897Y3200D01*
X3788Y3199D02*
X3897Y3199D01*
X3788Y3198D02*
X3897Y3198D01*
X3789Y2797D02*
X3897Y2797D01*
X3788Y2796D02*
X3897Y2796D01*
X3788Y2795D02*
X3897Y2795D01*
X3788Y2794D02*
X3897Y2794D01*
X3788Y2793D02*
X3897Y2793D01*
X3788Y2792D02*
X3897Y2792D01*
X3788Y2791D02*
X3897Y2791D01*
X3788Y2790D02*
X3897Y2790D01*
X3788Y2789D02*
X3897Y2789D01*
X3788Y2788D02*
X3897Y2788D01*
X3788Y2787D02*
X3897Y2787D01*
X3788Y2786D02*
X3897Y2786D01*
X3788Y2785D02*
X3897Y2785D01*
X3788Y2784D02*
X3897Y2784D01*
X3788Y2783D02*
X3897Y2783D01*
X3788Y2782D02*
X3897Y2782D01*
X3788Y2781D02*
X3897Y2781D01*
X3788Y2780D02*
X3897Y2780D01*
X3788Y2779D02*
X3897Y2779D01*
X3788Y2778D02*
X3897Y2778D01*
X3788Y2777D02*
X3842Y2777D01*
X3844Y2777D02*
X3897Y2777D01*
X3788Y2776D02*
X3834Y2776D01*
X3852Y2776D02*
X3897Y2776D01*
X3788Y2775D02*
X3831Y2775D01*
X3855Y2775D02*
X3897Y2775D01*
X3788Y2774D02*
X3828Y2774D01*
X3858Y2774D02*
X3897Y2774D01*
X3788Y2773D02*
X3826Y2773D01*
X3860Y2773D02*
X3897Y2773D01*
X3788Y2772D02*
X3824Y2772D01*
X3862Y2772D02*
X3897Y2772D01*
X3788Y2771D02*
X3823Y2771D01*
X3863Y2771D02*
X3897Y2771D01*
X3788Y2770D02*
X3821Y2770D01*
X3864Y2770D02*
X3897Y2770D01*
X3788Y2769D02*
X3820Y2769D01*
X3866Y2769D02*
X3897Y2769D01*
X3788Y2768D02*
X3819Y2768D01*
X3867Y2768D02*
X3897Y2768D01*
X3788Y2767D02*
X3818Y2767D01*
X3868Y2767D02*
X3897Y2767D01*
X3788Y2766D02*
X3817Y2766D01*
X3869Y2766D02*
X3897Y2766D01*
X3788Y2765D02*
X3816Y2765D01*
X3870Y2765D02*
X3897Y2765D01*
X3788Y2764D02*
X3815Y2764D01*
X3871Y2764D02*
X3897Y2764D01*
X3788Y2763D02*
X3814Y2763D01*
X3871Y2763D02*
X3897Y2763D01*
X3788Y2762D02*
X3814Y2762D01*
X3872Y2762D02*
X3897Y2762D01*
X3788Y2761D02*
X3813Y2761D01*
X3873Y2761D02*
X3897Y2761D01*
X3788Y2760D02*
X3812Y2760D01*
X3873Y2760D02*
X3897Y2760D01*
X3788Y2759D02*
X3812Y2759D01*
X3874Y2759D02*
X3897Y2759D01*
X3788Y2758D02*
X3811Y2758D01*
X3875Y2758D02*
X3897Y2758D01*
X3788Y2757D02*
X3811Y2757D01*
X3875Y2757D02*
X3897Y2757D01*
X3788Y2756D02*
X3810Y2756D01*
X3876Y2756D02*
X3897Y2756D01*
X3788Y2755D02*
X3810Y2755D01*
X3876Y2755D02*
X3897Y2755D01*
X3788Y2754D02*
X3809Y2754D01*
X3876Y2754D02*
X3897Y2754D01*
X3788Y2753D02*
X3809Y2753D01*
X3877Y2753D02*
X3897Y2753D01*
X3788Y2752D02*
X3809Y2752D01*
X3877Y2752D02*
X3897Y2752D01*
X3788Y2751D02*
X3809Y2751D01*
X3877Y2751D02*
X3897Y2751D01*
X3788Y2750D02*
X3808Y2750D01*
X3878Y2750D02*
X3897Y2750D01*
X3788Y2749D02*
X3808Y2749D01*
X3878Y2749D02*
X3897Y2749D01*
X3788Y2748D02*
X3808Y2748D01*
X3878Y2748D02*
X3897Y2748D01*
X3788Y2747D02*
X3808Y2747D01*
X3878Y2747D02*
X3897Y2747D01*
X3788Y2746D02*
X3808Y2746D01*
X3878Y2746D02*
X3897Y2746D01*
X3788Y2745D02*
X3808Y2745D01*
X3878Y2745D02*
X3897Y2745D01*
X3788Y2744D02*
X3808Y2744D01*
X3878Y2744D02*
X3897Y2744D01*
X3788Y2743D02*
X3807Y2743D01*
X3878Y2743D02*
X3897Y2743D01*
X3788Y2742D02*
X3807Y2742D01*
X3878Y2742D02*
X3897Y2742D01*
X3788Y2741D02*
X3807Y2741D01*
X3878Y2741D02*
X3897Y2741D01*
X3788Y2740D02*
X3808Y2740D01*
X3878Y2740D02*
X3897Y2740D01*
X3788Y2739D02*
X3808Y2739D01*
X3878Y2739D02*
X3897Y2739D01*
X3788Y2738D02*
X3808Y2738D01*
X3878Y2738D02*
X3897Y2738D01*
X3788Y2737D02*
X3808Y2737D01*
X3878Y2737D02*
X3897Y2737D01*
X3788Y2736D02*
X3808Y2736D01*
X3878Y2736D02*
X3897Y2736D01*
X3788Y2735D02*
X3808Y2735D01*
X3878Y2735D02*
X3897Y2735D01*
X3788Y2734D02*
X3808Y2734D01*
X3878Y2734D02*
X3897Y2734D01*
X3788Y2733D02*
X3809Y2733D01*
X3877Y2733D02*
X3897Y2733D01*
X3788Y2732D02*
X3809Y2732D01*
X3877Y2732D02*
X3897Y2732D01*
X3788Y2731D02*
X3809Y2731D01*
X3877Y2731D02*
X3897Y2731D01*
X3788Y2730D02*
X3809Y2730D01*
X3876Y2730D02*
X3897Y2730D01*
X3788Y2729D02*
X3810Y2729D01*
X3876Y2729D02*
X3897Y2729D01*
X3788Y2728D02*
X3810Y2728D01*
X3876Y2728D02*
X3897Y2728D01*
X3788Y2727D02*
X3811Y2727D01*
X3875Y2727D02*
X3897Y2727D01*
X3788Y2726D02*
X3811Y2726D01*
X3875Y2726D02*
X3897Y2726D01*
X3788Y2725D02*
X3812Y2725D01*
X3874Y2725D02*
X3897Y2725D01*
X3788Y2724D02*
X3812Y2724D01*
X3873Y2724D02*
X3897Y2724D01*
X3788Y2723D02*
X3813Y2723D01*
X3873Y2723D02*
X3897Y2723D01*
X3788Y2722D02*
X3814Y2722D01*
X3872Y2722D02*
X3897Y2722D01*
X3788Y2721D02*
X3814Y2721D01*
X3871Y2721D02*
X3897Y2721D01*
X3788Y2720D02*
X3815Y2720D01*
X3871Y2720D02*
X3897Y2720D01*
X3788Y2719D02*
X3816Y2719D01*
X3870Y2719D02*
X3897Y2719D01*
X3788Y2718D02*
X3817Y2718D01*
X3869Y2718D02*
X3897Y2718D01*
X3788Y2717D02*
X3818Y2717D01*
X3868Y2717D02*
X3897Y2717D01*
X3788Y2716D02*
X3819Y2716D01*
X3867Y2716D02*
X3897Y2716D01*
X3788Y2715D02*
X3820Y2715D01*
X3866Y2715D02*
X3897Y2715D01*
X3788Y2714D02*
X3821Y2714D01*
X3864Y2714D02*
X3897Y2714D01*
X3788Y2713D02*
X3823Y2713D01*
X3863Y2713D02*
X3897Y2713D01*
X3788Y2712D02*
X3824Y2712D01*
X3861Y2712D02*
X3897Y2712D01*
X3788Y2711D02*
X3826Y2711D01*
X3860Y2711D02*
X3897Y2711D01*
X3788Y2710D02*
X3828Y2710D01*
X3858Y2710D02*
X3897Y2710D01*
X3788Y2709D02*
X3831Y2709D01*
X3855Y2709D02*
X3897Y2709D01*
X3788Y2708D02*
X3834Y2708D01*
X3852Y2708D02*
X3897Y2708D01*
X3788Y2707D02*
X3897Y2707D01*
X3788Y2706D02*
X3897Y2706D01*
X3788Y2705D02*
X3897Y2705D01*
X3788Y2704D02*
X3897Y2704D01*
X3788Y2703D02*
X3897Y2703D01*
X3788Y2702D02*
X3897Y2702D01*
X3788Y2701D02*
X3897Y2701D01*
X3788Y2700D02*
X3897Y2700D01*
X3788Y2699D02*
X3897Y2699D01*
X3788Y2698D02*
X3897Y2698D01*
X3788Y2697D02*
X3897Y2697D01*
X3788Y2696D02*
X3897Y2696D01*
X3788Y2695D02*
X3897Y2695D01*
X3788Y2694D02*
X3897Y2694D01*
X3788Y2693D02*
X3897Y2693D01*
X3788Y2692D02*
X3897Y2692D01*
X3788Y2691D02*
X3897Y2691D01*
X3788Y2690D02*
X3897Y2690D01*
X3788Y2689D02*
X3897Y2689D01*
X3788Y2688D02*
X3897Y2688D01*
X1943Y1680D02*
X1943Y1680D01*
X1935Y1679D02*
X1951Y1679D01*
X1931Y1678D02*
X1954Y1678D01*
X1929Y1677D02*
X1957Y1677D01*
X1927Y1676D02*
X1959Y1676D01*
X1925Y1675D02*
X1961Y1675D01*
X1923Y1674D02*
X1963Y1674D01*
X1922Y1673D02*
X1964Y1673D01*
X1920Y1672D02*
X1966Y1672D01*
X1919Y1671D02*
X1967Y1671D01*
X1918Y1670D02*
X1968Y1670D01*
X1917Y1669D02*
X1969Y1669D01*
X1916Y1668D02*
X1970Y1668D01*
X1915Y1667D02*
X1971Y1667D01*
X1914Y1666D02*
X1972Y1666D01*
X1913Y1665D02*
X1973Y1665D01*
X1913Y1664D02*
X1973Y1664D01*
X1912Y1663D02*
X1974Y1663D01*
X1911Y1662D02*
X1975Y1662D01*
X1911Y1661D02*
X1975Y1661D01*
X1910Y1660D02*
X1976Y1660D01*
X1909Y1659D02*
X1976Y1659D01*
X1909Y1658D02*
X1977Y1658D01*
X1909Y1657D02*
X1977Y1657D01*
X1908Y1656D02*
X1978Y1656D01*
X1908Y1655D02*
X1978Y1655D01*
X1907Y1654D02*
X1978Y1654D01*
X1907Y1653D02*
X1979Y1653D01*
X1907Y1652D02*
X1979Y1652D01*
X1907Y1651D02*
X1979Y1651D01*
X1906Y1650D02*
X1979Y1650D01*
X1906Y1649D02*
X1980Y1649D01*
X1906Y1648D02*
X1980Y1648D01*
X1906Y1647D02*
X1980Y1647D01*
X1906Y1646D02*
X1980Y1646D01*
X1906Y1645D02*
X1980Y1645D01*
X1906Y1644D02*
X1980Y1644D01*
X1905Y1643D02*
X1980Y1643D01*
X1905Y1642D02*
X1980Y1642D01*
X1905Y1641D02*
X1980Y1641D01*
X1906Y1640D02*
X1980Y1640D01*
X1906Y1639D02*
X1980Y1639D01*
X1906Y1638D02*
X1980Y1638D01*
X1906Y1637D02*
X1980Y1637D01*
X1906Y1636D02*
X1980Y1636D01*
X1906Y1635D02*
X1980Y1635D01*
X1906Y1634D02*
X1979Y1634D01*
X1907Y1633D02*
X1979Y1633D01*
X1907Y1632D02*
X1979Y1632D01*
X1907Y1631D02*
X1979Y1631D01*
X1907Y1630D02*
X1978Y1630D01*
X1908Y1629D02*
X1978Y1629D01*
X1908Y1628D02*
X1978Y1628D01*
X1909Y1627D02*
X1977Y1627D01*
X1909Y1626D02*
X1977Y1626D01*
X1910Y1625D02*
X1976Y1625D01*
X1910Y1624D02*
X1976Y1624D01*
X1911Y1623D02*
X1975Y1623D01*
X1911Y1622D02*
X1975Y1622D01*
X1912Y1621D02*
X1974Y1621D01*
X1913Y1620D02*
X1973Y1620D01*
X1913Y1619D02*
X1973Y1619D01*
X1914Y1618D02*
X1972Y1618D01*
X1915Y1617D02*
X1971Y1617D01*
X1916Y1616D02*
X1970Y1616D01*
X1917Y1615D02*
X1969Y1615D01*
X1918Y1614D02*
X1968Y1614D01*
X1919Y1613D02*
X1967Y1613D01*
X1920Y1612D02*
X1966Y1612D01*
X1922Y1611D02*
X1964Y1611D01*
X1923Y1610D02*
X1963Y1610D01*
X1925Y1609D02*
X1961Y1609D01*
X1927Y1608D02*
X1959Y1608D01*
X1929Y1607D02*
X1957Y1607D01*
X1932Y1606D02*
X1954Y1606D01*
X1935Y1605D02*
X1951Y1605D01*
X1943Y1580D02*
X1943Y1580D01*
X1935Y1579D02*
X1951Y1579D01*
X1931Y1578D02*
X1954Y1578D01*
X1929Y1577D02*
X1957Y1577D01*
X1927Y1576D02*
X1959Y1576D01*
X1925Y1575D02*
X1961Y1575D01*
X1923Y1574D02*
X1963Y1574D01*
X1922Y1573D02*
X1964Y1573D01*
X1920Y1572D02*
X1966Y1572D01*
X1919Y1571D02*
X1967Y1571D01*
X1918Y1570D02*
X1968Y1570D01*
X1917Y1569D02*
X1969Y1569D01*
X1916Y1568D02*
X1970Y1568D01*
X1915Y1567D02*
X1971Y1567D01*
X1914Y1566D02*
X1972Y1566D01*
X1913Y1565D02*
X1973Y1565D01*
X1913Y1564D02*
X1973Y1564D01*
X1912Y1563D02*
X1974Y1563D01*
X1911Y1562D02*
X1975Y1562D01*
X1911Y1561D02*
X1975Y1561D01*
X1910Y1560D02*
X1976Y1560D01*
X1909Y1559D02*
X1976Y1559D01*
X1909Y1558D02*
X1977Y1558D01*
X1909Y1557D02*
X1977Y1557D01*
X1908Y1556D02*
X1978Y1556D01*
X1908Y1555D02*
X1978Y1555D01*
X1907Y1554D02*
X1978Y1554D01*
X1907Y1553D02*
X1979Y1553D01*
X1907Y1552D02*
X1979Y1552D01*
X1907Y1551D02*
X1979Y1551D01*
X1906Y1550D02*
X1979Y1550D01*
X1906Y1549D02*
X1980Y1549D01*
X1906Y1548D02*
X1980Y1548D01*
X1906Y1547D02*
X1980Y1547D01*
X1906Y1546D02*
X1980Y1546D01*
X1906Y1545D02*
X1980Y1545D01*
X1906Y1544D02*
X1980Y1544D01*
X1905Y1543D02*
X1980Y1543D01*
X1905Y1542D02*
X1980Y1542D01*
X1905Y1541D02*
X1980Y1541D01*
X1906Y1540D02*
X1980Y1540D01*
X1906Y1539D02*
X1980Y1539D01*
X1906Y1538D02*
X1980Y1538D01*
X1906Y1537D02*
X1980Y1537D01*
X1906Y1536D02*
X1980Y1536D01*
X1906Y1535D02*
X1980Y1535D01*
X1906Y1534D02*
X1979Y1534D01*
X1907Y1533D02*
X1979Y1533D01*
X1907Y1532D02*
X1979Y1532D01*
X1907Y1531D02*
X1979Y1531D01*
X1907Y1530D02*
X1978Y1530D01*
X1908Y1529D02*
X1978Y1529D01*
X1908Y1528D02*
X1978Y1528D01*
X1909Y1527D02*
X1977Y1527D01*
X1909Y1526D02*
X1977Y1526D01*
X1910Y1525D02*
X1976Y1525D01*
X1910Y1524D02*
X1976Y1524D01*
X1911Y1523D02*
X1975Y1523D01*
X1911Y1522D02*
X1975Y1522D01*
X1912Y1521D02*
X1974Y1521D01*
X1913Y1520D02*
X1973Y1520D01*
X1913Y1519D02*
X1973Y1519D01*
X1914Y1518D02*
X1972Y1518D01*
X1915Y1517D02*
X1971Y1517D01*
X1916Y1516D02*
X1970Y1516D01*
X1917Y1515D02*
X1969Y1515D01*
X1918Y1514D02*
X1968Y1514D01*
X1919Y1513D02*
X1967Y1513D01*
X1920Y1512D02*
X1966Y1512D01*
X1922Y1511D02*
X1964Y1511D01*
X1923Y1510D02*
X1963Y1510D01*
X1925Y1509D02*
X1961Y1509D01*
X1927Y1508D02*
X1959Y1508D01*
X1929Y1507D02*
X1957Y1507D01*
X1932Y1506D02*
X1954Y1506D01*
X1935Y1505D02*
X1951Y1505D01*
X1943Y1480D02*
X1943Y1480D01*
X1935Y1479D02*
X1951Y1479D01*
X1931Y1478D02*
X1955Y1478D01*
X1929Y1477D02*
X1957Y1477D01*
X1927Y1476D02*
X1959Y1476D01*
X1925Y1475D02*
X1961Y1475D01*
X1923Y1474D02*
X1963Y1474D01*
X1922Y1473D02*
X1964Y1473D01*
X1920Y1472D02*
X1966Y1472D01*
X1919Y1471D02*
X1967Y1471D01*
X1918Y1470D02*
X1968Y1470D01*
X1917Y1469D02*
X1969Y1469D01*
X1916Y1468D02*
X1970Y1468D01*
X1915Y1467D02*
X1971Y1467D01*
X1914Y1466D02*
X1972Y1466D01*
X1913Y1465D02*
X1973Y1465D01*
X1913Y1464D02*
X1973Y1464D01*
X1912Y1463D02*
X1974Y1463D01*
X1911Y1462D02*
X1975Y1462D01*
X1911Y1461D02*
X1975Y1461D01*
X1910Y1460D02*
X1976Y1460D01*
X1909Y1459D02*
X1976Y1459D01*
X1909Y1458D02*
X1977Y1458D01*
X1909Y1457D02*
X1977Y1457D01*
X1908Y1456D02*
X1978Y1456D01*
X1908Y1455D02*
X1978Y1455D01*
X1907Y1454D02*
X1978Y1454D01*
X1907Y1453D02*
X1979Y1453D01*
X1907Y1452D02*
X1979Y1452D01*
X1907Y1451D02*
X1979Y1451D01*
X1906Y1450D02*
X1980Y1450D01*
X1906Y1449D02*
X1980Y1449D01*
X1906Y1448D02*
X1980Y1448D01*
X1906Y1447D02*
X1980Y1447D01*
X1906Y1446D02*
X1980Y1446D01*
X1906Y1445D02*
X1980Y1445D01*
X1906Y1444D02*
X1980Y1444D01*
X1905Y1443D02*
X1980Y1443D01*
X1905Y1442D02*
X1980Y1442D01*
X1905Y1441D02*
X1980Y1441D01*
X1906Y1440D02*
X1980Y1440D01*
X1906Y1439D02*
X1980Y1439D01*
X1906Y1438D02*
X1980Y1438D01*
X1906Y1437D02*
X1980Y1437D01*
X1906Y1436D02*
X1980Y1436D01*
X1906Y1435D02*
X1980Y1435D01*
X1906Y1434D02*
X1979Y1434D01*
X1907Y1433D02*
X1979Y1433D01*
X1907Y1432D02*
X1979Y1432D01*
X1907Y1431D02*
X1979Y1431D01*
X1907Y1430D02*
X1978Y1430D01*
X1908Y1429D02*
X1978Y1429D01*
X1908Y1428D02*
X1978Y1428D01*
X1909Y1427D02*
X1977Y1427D01*
X1909Y1426D02*
X1977Y1426D01*
X1910Y1425D02*
X1976Y1425D01*
X1910Y1424D02*
X1976Y1424D01*
X1911Y1423D02*
X1975Y1423D01*
X1911Y1422D02*
X1975Y1422D01*
X1912Y1421D02*
X1974Y1421D01*
X1913Y1420D02*
X1973Y1420D01*
X1913Y1419D02*
X1973Y1419D01*
X1914Y1418D02*
X1972Y1418D01*
X1915Y1417D02*
X1971Y1417D01*
X1916Y1416D02*
X1970Y1416D01*
X1917Y1415D02*
X1969Y1415D01*
X1918Y1414D02*
X1968Y1414D01*
X1919Y1413D02*
X1967Y1413D01*
X1920Y1412D02*
X1966Y1412D01*
X1922Y1411D02*
X1964Y1411D01*
X1923Y1410D02*
X1963Y1410D01*
X1925Y1409D02*
X1961Y1409D01*
X1927Y1408D02*
X1959Y1408D01*
X1929Y1407D02*
X1957Y1407D01*
X1932Y1406D02*
X1954Y1406D01*
X1935Y1405D02*
X1950Y1405D01*
X1943Y1380D02*
X1943Y1380D01*
X1935Y1379D02*
X1951Y1379D01*
X1931Y1378D02*
X1954Y1378D01*
X1929Y1377D02*
X1957Y1377D01*
X1927Y1376D02*
X1959Y1376D01*
X1925Y1375D02*
X1961Y1375D01*
X1923Y1374D02*
X1963Y1374D01*
X1922Y1373D02*
X1964Y1373D01*
X1920Y1372D02*
X1966Y1372D01*
X1919Y1371D02*
X1967Y1371D01*
X1918Y1370D02*
X1968Y1370D01*
X1917Y1369D02*
X1969Y1369D01*
X1916Y1368D02*
X1970Y1368D01*
X1915Y1367D02*
X1971Y1367D01*
X1914Y1366D02*
X1972Y1366D01*
X1913Y1365D02*
X1973Y1365D01*
X1913Y1364D02*
X1973Y1364D01*
X1912Y1363D02*
X1974Y1363D01*
X1911Y1362D02*
X1975Y1362D01*
X1911Y1361D02*
X1975Y1361D01*
X1910Y1360D02*
X1976Y1360D01*
X1909Y1359D02*
X1976Y1359D01*
X1909Y1358D02*
X1977Y1358D01*
X1909Y1357D02*
X1977Y1357D01*
X1908Y1356D02*
X1978Y1356D01*
X1908Y1355D02*
X1978Y1355D01*
X1907Y1354D02*
X1978Y1354D01*
X1907Y1353D02*
X1979Y1353D01*
X1907Y1352D02*
X1979Y1352D01*
X1907Y1351D02*
X1979Y1351D01*
X1906Y1350D02*
X1979Y1350D01*
X1906Y1349D02*
X1980Y1349D01*
X1906Y1348D02*
X1980Y1348D01*
X1906Y1347D02*
X1980Y1347D01*
X1906Y1346D02*
X1980Y1346D01*
X1906Y1345D02*
X1980Y1345D01*
X1906Y1344D02*
X1980Y1344D01*
X1905Y1343D02*
X1980Y1343D01*
X1905Y1342D02*
X1980Y1342D01*
X1905Y1341D02*
X1980Y1341D01*
X1906Y1340D02*
X1980Y1340D01*
X1906Y1339D02*
X1980Y1339D01*
X1906Y1338D02*
X1980Y1338D01*
X1906Y1337D02*
X1980Y1337D01*
X1906Y1336D02*
X1980Y1336D01*
X1906Y1335D02*
X1980Y1335D01*
X1906Y1334D02*
X1979Y1334D01*
X1907Y1333D02*
X1979Y1333D01*
X1907Y1332D02*
X1979Y1332D01*
X1907Y1331D02*
X1979Y1331D01*
X1907Y1330D02*
X1978Y1330D01*
X1908Y1329D02*
X1978Y1329D01*
X1908Y1328D02*
X1978Y1328D01*
X1909Y1327D02*
X1977Y1327D01*
X1909Y1326D02*
X1977Y1326D01*
X1910Y1325D02*
X1976Y1325D01*
X1910Y1324D02*
X1976Y1324D01*
X1911Y1323D02*
X1975Y1323D01*
X1911Y1322D02*
X1975Y1322D01*
X1912Y1321D02*
X1974Y1321D01*
X1913Y1320D02*
X1973Y1320D01*
X1913Y1319D02*
X1973Y1319D01*
X1914Y1318D02*
X1972Y1318D01*
X1915Y1317D02*
X1971Y1317D01*
X1916Y1316D02*
X1970Y1316D01*
X1917Y1315D02*
X1969Y1315D01*
X1918Y1314D02*
X1968Y1314D01*
X1919Y1313D02*
X1967Y1313D01*
X1920Y1312D02*
X1966Y1312D01*
X1922Y1311D02*
X1964Y1311D01*
X1923Y1310D02*
X1963Y1310D01*
X1925Y1309D02*
X1961Y1309D01*
X1927Y1308D02*
X1959Y1308D01*
X1929Y1307D02*
X1957Y1307D01*
X1932Y1306D02*
X1954Y1306D01*
X1935Y1305D02*
X1951Y1305D01*
X1943Y1280D02*
X1943Y1280D01*
X1935Y1279D02*
X1951Y1279D01*
X1931Y1278D02*
X1954Y1278D01*
X1929Y1277D02*
X1957Y1277D01*
X1927Y1276D02*
X1959Y1276D01*
X1925Y1275D02*
X1961Y1275D01*
X1923Y1274D02*
X1963Y1274D01*
X1922Y1273D02*
X1964Y1273D01*
X1920Y1272D02*
X1966Y1272D01*
X1919Y1271D02*
X1967Y1271D01*
X1918Y1270D02*
X1968Y1270D01*
X1917Y1269D02*
X1969Y1269D01*
X1916Y1268D02*
X1970Y1268D01*
X1915Y1267D02*
X1971Y1267D01*
X1914Y1266D02*
X1972Y1266D01*
X1913Y1265D02*
X1973Y1265D01*
X1913Y1264D02*
X1973Y1264D01*
X1912Y1263D02*
X1974Y1263D01*
X1911Y1262D02*
X1975Y1262D01*
X1911Y1261D02*
X1975Y1261D01*
X1910Y1260D02*
X1976Y1260D01*
X1910Y1259D02*
X1976Y1259D01*
X1909Y1258D02*
X1977Y1258D01*
X1909Y1257D02*
X1977Y1257D01*
X1908Y1256D02*
X1978Y1256D01*
X1908Y1255D02*
X1978Y1255D01*
X1907Y1254D02*
X1978Y1254D01*
X1907Y1253D02*
X1979Y1253D01*
X1907Y1252D02*
X1979Y1252D01*
X1907Y1251D02*
X1979Y1251D01*
X1906Y1250D02*
X1979Y1250D01*
X1906Y1249D02*
X1980Y1249D01*
X1906Y1248D02*
X1980Y1248D01*
X1906Y1247D02*
X1980Y1247D01*
X1906Y1246D02*
X1980Y1246D01*
X1906Y1245D02*
X1980Y1245D01*
X1906Y1244D02*
X1980Y1244D01*
X1905Y1243D02*
X1980Y1243D01*
X1905Y1242D02*
X1980Y1242D01*
X1905Y1241D02*
X1980Y1241D01*
X1906Y1240D02*
X1980Y1240D01*
X1906Y1239D02*
X1980Y1239D01*
X1906Y1238D02*
X1980Y1238D01*
X1906Y1237D02*
X1980Y1237D01*
X1906Y1236D02*
X1980Y1236D01*
X1906Y1235D02*
X1980Y1235D01*
X1906Y1234D02*
X1979Y1234D01*
X1907Y1233D02*
X1979Y1233D01*
X1907Y1232D02*
X1979Y1232D01*
X1907Y1231D02*
X1979Y1231D01*
X1907Y1230D02*
X1978Y1230D01*
X1908Y1229D02*
X1978Y1229D01*
X1908Y1228D02*
X1978Y1228D01*
X1909Y1227D02*
X1977Y1227D01*
X1909Y1226D02*
X1977Y1226D01*
X1910Y1225D02*
X1976Y1225D01*
X1910Y1224D02*
X1976Y1224D01*
X1911Y1223D02*
X1975Y1223D01*
X1911Y1222D02*
X1975Y1222D01*
X1912Y1221D02*
X1974Y1221D01*
X1913Y1220D02*
X1973Y1220D01*
X1913Y1219D02*
X1973Y1219D01*
X1914Y1218D02*
X1972Y1218D01*
X1915Y1217D02*
X1971Y1217D01*
X1916Y1216D02*
X1970Y1216D01*
X1917Y1215D02*
X1969Y1215D01*
X1918Y1214D02*
X1968Y1214D01*
X1919Y1213D02*
X1967Y1213D01*
X1920Y1212D02*
X1966Y1212D01*
X1922Y1211D02*
X1964Y1211D01*
X1923Y1210D02*
X1963Y1210D01*
X1925Y1209D02*
X1961Y1209D01*
X1927Y1208D02*
X1959Y1208D01*
X1929Y1207D02*
X1957Y1207D01*
X1932Y1206D02*
X1954Y1206D01*
X1935Y1205D02*
X1951Y1205D01*
X1943Y1180D02*
X1943Y1180D01*
X1935Y1179D02*
X1951Y1179D01*
X1931Y1178D02*
X1955Y1178D01*
X1929Y1177D02*
X1957Y1177D01*
X1927Y1176D02*
X1959Y1176D01*
X1925Y1175D02*
X1961Y1175D01*
X1923Y1174D02*
X1963Y1174D01*
X1922Y1173D02*
X1964Y1173D01*
X1920Y1172D02*
X1966Y1172D01*
X1919Y1171D02*
X1967Y1171D01*
X1918Y1170D02*
X1968Y1170D01*
X1917Y1169D02*
X1969Y1169D01*
X1916Y1168D02*
X1970Y1168D01*
X1915Y1167D02*
X1971Y1167D01*
X1914Y1166D02*
X1972Y1166D01*
X1913Y1165D02*
X1973Y1165D01*
X1913Y1164D02*
X1973Y1164D01*
X1912Y1163D02*
X1974Y1163D01*
X1911Y1162D02*
X1975Y1162D01*
X1911Y1161D02*
X1975Y1161D01*
X1910Y1160D02*
X1976Y1160D01*
X1910Y1159D02*
X1976Y1159D01*
X1909Y1158D02*
X1977Y1158D01*
X1909Y1157D02*
X1977Y1157D01*
X1908Y1156D02*
X1978Y1156D01*
X1908Y1155D02*
X1978Y1155D01*
X1907Y1154D02*
X1978Y1154D01*
X1907Y1153D02*
X1979Y1153D01*
X1907Y1152D02*
X1979Y1152D01*
X1907Y1151D02*
X1979Y1151D01*
X1906Y1150D02*
X1980Y1150D01*
X1906Y1149D02*
X1980Y1149D01*
X1906Y1148D02*
X1980Y1148D01*
X1906Y1147D02*
X1980Y1147D01*
X1906Y1146D02*
X1980Y1146D01*
X1906Y1145D02*
X1980Y1145D01*
X1906Y1144D02*
X1980Y1144D01*
X1905Y1143D02*
X1980Y1143D01*
X1905Y1142D02*
X1980Y1142D01*
X1905Y1141D02*
X1980Y1141D01*
X1906Y1140D02*
X1980Y1140D01*
X1906Y1139D02*
X1980Y1139D01*
X1906Y1138D02*
X1980Y1138D01*
X1906Y1137D02*
X1980Y1137D01*
X1906Y1136D02*
X1980Y1136D01*
X1906Y1135D02*
X1980Y1135D01*
X1906Y1134D02*
X1979Y1134D01*
X1907Y1133D02*
X1979Y1133D01*
X1907Y1132D02*
X1979Y1132D01*
X1907Y1131D02*
X1979Y1131D01*
X1907Y1130D02*
X1978Y1130D01*
X1908Y1129D02*
X1978Y1129D01*
X1908Y1128D02*
X1978Y1128D01*
X1909Y1127D02*
X1977Y1127D01*
X1909Y1126D02*
X1977Y1126D01*
X1910Y1125D02*
X1976Y1125D01*
X1910Y1124D02*
X1976Y1124D01*
X1911Y1123D02*
X1975Y1123D01*
X1911Y1122D02*
X1975Y1122D01*
X1912Y1121D02*
X1974Y1121D01*
X1913Y1120D02*
X1973Y1120D01*
X1913Y1119D02*
X1973Y1119D01*
X1914Y1118D02*
X1972Y1118D01*
X1915Y1117D02*
X1971Y1117D01*
X1916Y1116D02*
X1970Y1116D01*
X1917Y1115D02*
X1969Y1115D01*
X1918Y1114D02*
X1968Y1114D01*
X1919Y1113D02*
X1967Y1113D01*
X1920Y1112D02*
X1966Y1112D01*
X1922Y1111D02*
X1964Y1111D01*
X1923Y1110D02*
X1963Y1110D01*
X1925Y1109D02*
X1961Y1109D01*
X1927Y1108D02*
X1959Y1108D01*
X1929Y1107D02*
X1957Y1107D01*
X1932Y1106D02*
X1954Y1106D01*
X1935Y1105D02*
X1951Y1105D01*
D02*
G04 End of Mask0*
M02*