; NON-PLATED HOLES START AT T1
; THROUGH (PLATED) HOLES START AT T100
M48
INCH
T1C0.090000
T100C0.031250
T101C0.038000
T102C0.036000
T103C0.037972
T104C0.080000
%
T1
X033534Y034415
X022934Y034415
X028234Y025615
T100
X019434Y015415
X019434Y012415
X019434Y011415
X019434Y014415
X019434Y016415
X019434Y013415
T101
X033434Y004415
X033434Y003415
X033434Y007415
X033434Y005415
X033434Y001415
X017434Y007415
X017434Y005415
X017434Y006415
X033434Y002415
X033434Y008415
X033434Y006415
T102
X009434Y031415
X009434Y021415
X003434Y030415
X009434Y028415
X003434Y022415
X009434Y024415
X005436Y034371
X009434Y022415
X003434Y025415
X003434Y020415
X003434Y032415
X003434Y028415
X003434Y029415
X009434Y026415
X009434Y034415
X009434Y025415
X007438Y034371
X009434Y032415
X009434Y033415
X006437Y035371
X009434Y020415
X003434Y023415
X003434Y021415
X009434Y030415
X003434Y026415
X005436Y035371
X009434Y027415
X003434Y031415
X003434Y034415
X009434Y023415
X003434Y024415
X007438Y035371
X006437Y034371
X003434Y033415
X003434Y027415
X009434Y029415
T103
X017434Y008415
T104
X038434Y032515
X038434Y027415
T00
M30
